<mxfile host="app.diagrams.net" agent="Mozilla/5.0 (Windows NT 10.0; Win64; x64) AppleWebKit/537.36 (KHTML, like Gecko) Chrome/131.0.0.0 Safari/537.36" version="26.0.4">
  <diagram name="C4_Model_Diagram" id="VM3UW7SHw4kSLpkoVOKJ">
    <mxGraphModel dx="2404" dy="1451" grid="1" gridSize="10" guides="1" tooltips="1" connect="1" arrows="1" fold="1" page="1" pageScale="1" pageWidth="1169" pageHeight="827" math="0" shadow="0">
      <root>
        <mxCell id="0" />
        <mxCell id="1" parent="0" />
        <mxCell id="4egpDCTyvuItjCUWfbEi-9" style="rounded=1;flowAnimation=1;" edge="1" parent="1" source="4egpDCTyvuItjCUWfbEi-24" target="4egpDCTyvuItjCUWfbEi-20">
          <mxGeometry relative="1" as="geometry">
            <mxPoint x="429.022988505747" y="374" as="targetPoint" />
          </mxGeometry>
        </mxCell>
        <mxCell id="4egpDCTyvuItjCUWfbEi-10" style="rounded=1;flowAnimation=1;" edge="1" parent="1">
          <mxGeometry relative="1" as="geometry">
            <mxPoint x="600" y="399" as="sourcePoint" />
            <mxPoint x="600" y="320" as="targetPoint" />
          </mxGeometry>
        </mxCell>
        <mxCell id="4egpDCTyvuItjCUWfbEi-11" style="rounded=1;flowAnimation=1;" edge="1" parent="1">
          <mxGeometry relative="1" as="geometry">
            <mxPoint x="459.41" y="320" as="sourcePoint" />
            <mxPoint x="459.41" y="399" as="targetPoint" />
          </mxGeometry>
        </mxCell>
        <mxCell id="4egpDCTyvuItjCUWfbEi-12" style="rounded=1;flowAnimation=1;" edge="1" parent="1" source="4egpDCTyvuItjCUWfbEi-20" target="4egpDCTyvuItjCUWfbEi-30">
          <mxGeometry relative="1" as="geometry">
            <mxPoint x="520.977011494253" y="374" as="sourcePoint" />
            <mxPoint x="712.077625570776" y="240" as="targetPoint" />
          </mxGeometry>
        </mxCell>
        <mxCell id="4egpDCTyvuItjCUWfbEi-13" style="rounded=1;flowAnimation=1;" edge="1" parent="1" source="4egpDCTyvuItjCUWfbEi-30" target="4egpDCTyvuItjCUWfbEi-19">
          <mxGeometry relative="1" as="geometry">
            <mxPoint x="773.181818181818" y="240" as="sourcePoint" />
            <mxPoint x="830" y="240" as="targetPoint" />
          </mxGeometry>
        </mxCell>
        <mxCell id="4egpDCTyvuItjCUWfbEi-14" style="rounded=1;flowAnimation=1;exitX=1;exitY=0.25;exitDx=0;exitDy=0;exitPerimeter=0;" edge="1" parent="1" source="4egpDCTyvuItjCUWfbEi-25" target="4egpDCTyvuItjCUWfbEi-23">
          <mxGeometry relative="1" as="geometry">
            <mxPoint x="601" y="200" as="sourcePoint" />
            <mxPoint x="770" y="-160" as="targetPoint" />
          </mxGeometry>
        </mxCell>
        <object placeholders="1" c4Name="deliverydb" c4Type="Container" c4Technology="MongoDb" c4Description="Armazena as informações dos pedidos" label="&lt;font style=&quot;font-size: 16px&quot;&gt;&lt;b&gt;%c4Name%&lt;/b&gt;&lt;/font&gt;&lt;div&gt;[%c4Type%:&amp;nbsp;%c4Technology%]&lt;/div&gt;&lt;br&gt;&lt;div&gt;&lt;font style=&quot;font-size: 11px&quot;&gt;&lt;font color=&quot;#E6E6E6&quot;&gt;%c4Description%&lt;/font&gt;&lt;/div&gt;" id="4egpDCTyvuItjCUWfbEi-18">
          <mxCell style="shape=cylinder3;size=15;whiteSpace=wrap;html=1;boundedLbl=1;rounded=0;labelBackgroundColor=none;fillColor=light-dark(#007FFF,#A8A8FF);fontSize=12;fontColor=#ffffff;align=center;strokeColor=#0E7DAD;metaEdit=1;points=[[0.5,0,0],[1,0.25,0],[1,0.5,0],[1,0.75,0],[0.5,1,0],[0,0.75,0],[0,0.5,0],[0,0.25,0]];resizable=0;" vertex="1" parent="1">
            <mxGeometry x="40" y="399" width="240" height="120" as="geometry" />
          </mxCell>
        </object>
        <object placeholders="1" c4Name="orderdb" c4Type="Container" c4Technology="MongoDb" c4Description="Armazena as informações dos pedidos finalizados e cancelados" label="&lt;font style=&quot;font-size: 16px&quot;&gt;&lt;b&gt;%c4Name%&lt;/b&gt;&lt;/font&gt;&lt;div&gt;[%c4Type%:&amp;nbsp;%c4Technology%]&lt;/div&gt;&lt;br&gt;&lt;div&gt;&lt;font style=&quot;font-size: 11px&quot;&gt;&lt;font color=&quot;#E6E6E6&quot;&gt;%c4Description%&lt;/font&gt;&lt;/div&gt;" id="4egpDCTyvuItjCUWfbEi-19">
          <mxCell style="shape=cylinder3;size=15;whiteSpace=wrap;html=1;boundedLbl=1;rounded=0;labelBackgroundColor=none;fillColor=light-dark(#007FFF,#A8A8FF);fontSize=12;fontColor=#ffffff;align=center;strokeColor=#0E7DAD;metaEdit=1;points=[[0.5,0,0],[1,0.25,0],[1,0.5,0],[1,0.75,0],[0.5,1,0],[0,0.75,0],[0,0.5,0],[0,0.25,0]];resizable=0;" vertex="1" parent="1">
            <mxGeometry x="770" y="399" width="240" height="120" as="geometry" />
          </mxCell>
        </object>
        <object placeholders="1" c4Name="Barramento Kafka" c4Type="Container" c4Technology="e.g. Apache Kafka, etc." c4Description="Descrição da função/responsabilidade do contêiner do tipo de barramento de mensagens." label="&lt;font style=&quot;font-size: 16px&quot;&gt;&lt;b&gt;%c4Name%&lt;/b&gt;&lt;/font&gt;&lt;div&gt;[%c4Type%:&amp;nbsp;%c4Technology%]&lt;/div&gt;&lt;br&gt;&lt;div&gt;&lt;font style=&quot;font-size: 11px&quot;&gt;&lt;font color=&quot;#E6E6E6&quot;&gt;%c4Description%&lt;/font&gt;&lt;/div&gt;" id="4egpDCTyvuItjCUWfbEi-20">
          <mxCell style="shape=cylinder3;size=15;direction=south;whiteSpace=wrap;html=1;boundedLbl=1;rounded=0;labelBackgroundColor=none;fillColor=light-dark(#007FFF,#A8A8FF);fontSize=12;fontColor=#ffffff;align=center;strokeColor=#0E7DAD;metaEdit=1;points=[[0.5,0,0],[1,0.25,0],[1,0.5,0],[1,0.75,0],[0.5,1,0],[0,0.75,0],[0,0.5,0],[0,0.25,0]];resizable=0;" vertex="1" parent="1">
            <mxGeometry x="410" y="399" width="240" height="120" as="geometry" />
          </mxCell>
        </object>
        <object placeholders="1" c4Name="Produto Externo A" c4Type="Sistema Externo" c4Description="Sistema externo responsavel por disponibilizar os pedidos" label="&lt;font style=&quot;font-size: 16px&quot;&gt;&lt;b&gt;%c4Name%&lt;/b&gt;&lt;/font&gt;&lt;div&gt;[%c4Type%]&lt;/div&gt;&lt;br&gt;&lt;div&gt;&lt;font style=&quot;font-size: 11px&quot;&gt;&lt;font color=&quot;#cccccc&quot;&gt;%c4Description%&lt;/font&gt;&lt;/div&gt;" id="4egpDCTyvuItjCUWfbEi-22">
          <mxCell style="rounded=1;whiteSpace=wrap;html=1;labelBackgroundColor=none;fillColor=#8C8496;fontColor=#ffffff;align=center;arcSize=10;strokeColor=#736782;metaEdit=1;resizable=0;points=[[0.25,0,0],[0.5,0,0],[0.75,0,0],[1,0.25,0],[1,0.5,0],[1,0.75,0],[0.75,1,0],[0.5,1,0],[0.25,1,0],[0,0.75,0],[0,0.5,0],[0,0.25,0]];" vertex="1" parent="1">
            <mxGeometry x="60" y="-290" width="240" height="120" as="geometry" />
          </mxCell>
        </object>
        <object placeholders="1" c4Name="Produto Externo B" c4Type="Sistema Externos" c4Description="Sistema externo precisa receber os pedidosjá calculados" label="&lt;font style=&quot;font-size: 16px&quot;&gt;&lt;b&gt;%c4Name%&lt;/b&gt;&lt;/font&gt;&lt;div&gt;[%c4Type%]&lt;/div&gt;&lt;br&gt;&lt;div&gt;&lt;font style=&quot;font-size: 11px&quot;&gt;&lt;font color=&quot;#cccccc&quot;&gt;%c4Description%&lt;/font&gt;&lt;/div&gt;" id="4egpDCTyvuItjCUWfbEi-23">
          <mxCell style="rounded=1;whiteSpace=wrap;html=1;labelBackgroundColor=none;fillColor=#8C8496;fontColor=#ffffff;align=center;arcSize=10;strokeColor=#736782;metaEdit=1;resizable=0;points=[[0.25,0,0],[0.5,0,0],[0.75,0,0],[1,0.25,0],[1,0.5,0],[1,0.75,0],[0.75,1,0],[0.5,1,0],[0.25,1,0],[0,0.75,0],[0,0.5,0],[0,0.25,0]];" vertex="1" parent="1">
            <mxGeometry x="680" y="-290" width="240" height="120" as="geometry" />
          </mxCell>
        </object>
        <object placeholders="1" c4Name="delivery-service" c4Type="Sistema " c4Description="Valida duplicidade, salva no MongoDB e publica no Kafka." label="&lt;font style=&quot;font-size: 16px&quot;&gt;&lt;b&gt;%c4Name%&lt;/b&gt;&lt;/font&gt;&lt;div&gt;[%c4Type%]&lt;/div&gt;&lt;br&gt;&lt;div&gt;&lt;font style=&quot;font-size: 11px&quot;&gt;&lt;font color=&quot;#cccccc&quot;&gt;%c4Description%&lt;/font&gt;&lt;/div&gt;" id="4egpDCTyvuItjCUWfbEi-24">
          <mxCell style="rounded=1;whiteSpace=wrap;html=1;labelBackgroundColor=none;fillColor=#1061B0;fontColor=#ffffff;align=center;arcSize=10;strokeColor=#0D5091;metaEdit=1;resizable=0;points=[[0.25,0,0],[0.5,0,0],[0.75,0,0],[1,0.25,0],[1,0.5,0],[1,0.75,0],[0.75,1,0],[0.5,1,0],[0.25,1,0],[0,0.75,0],[0,0.5,0],[0,0.25,0]];" vertex="1" parent="1">
            <mxGeometry x="40" y="200" width="240" height="120" as="geometry" />
          </mxCell>
        </object>
        <object placeholders="1" c4Name="Gateway" c4Type="Sistema" c4Description="Gerenciar essas interações" label="&lt;font style=&quot;font-size: 16px&quot;&gt;&lt;b&gt;%c4Name%&lt;/b&gt;&lt;/font&gt;&lt;div&gt;[%c4Type%]&lt;/div&gt;&lt;br&gt;&lt;div&gt;&lt;font style=&quot;font-size: 11px&quot;&gt;&lt;font color=&quot;#cccccc&quot;&gt;%c4Description%&lt;/font&gt;&lt;/div&gt;" id="4egpDCTyvuItjCUWfbEi-25">
          <mxCell style="rounded=1;whiteSpace=wrap;html=1;labelBackgroundColor=none;fillColor=#1061B0;fontColor=#ffffff;align=center;arcSize=10;strokeColor=#0D5091;metaEdit=1;resizable=0;points=[[0.25,0,0],[0.5,0,0],[0.75,0,0],[1,0.25,0],[1,0.5,0],[1,0.75,0],[0.75,1,0],[0.5,1,0],[0.25,1,0],[0,0.75,0],[0,0.5,0],[0,0.25,0]];" vertex="1" parent="1">
            <mxGeometry x="380" y="-70" width="240" height="120" as="geometry" />
          </mxCell>
        </object>
        <mxCell id="4egpDCTyvuItjCUWfbEi-27" style="rounded=1;flowAnimation=1;" edge="1" parent="1" source="4egpDCTyvuItjCUWfbEi-30" target="4egpDCTyvuItjCUWfbEi-25">
          <mxGeometry relative="1" as="geometry">
            <mxPoint x="750" y="-60" as="sourcePoint" />
            <mxPoint x="730" y="20" as="targetPoint" />
          </mxGeometry>
        </mxCell>
        <mxCell id="4egpDCTyvuItjCUWfbEi-28" style="rounded=1;flowAnimation=1;" edge="1" parent="1" source="4egpDCTyvuItjCUWfbEi-25" target="4egpDCTyvuItjCUWfbEi-24">
          <mxGeometry relative="1" as="geometry">
            <mxPoint x="987" as="sourcePoint" />
            <mxPoint x="291" y="120" as="targetPoint" />
          </mxGeometry>
        </mxCell>
        <object placeholders="1" c4Name="processing-service" c4Type="Sistema " c4Description="Escuta mensagens Kafka, processa pedidos, calcula totais e atualiza status e publica mensagens no Kafka." label="&lt;font style=&quot;font-size: 16px&quot;&gt;&lt;b&gt;%c4Name%&lt;/b&gt;&lt;/font&gt;&lt;div&gt;[%c4Type%]&lt;/div&gt;&lt;br&gt;&lt;div&gt;&lt;font style=&quot;font-size: 11px&quot;&gt;&lt;font color=&quot;#cccccc&quot;&gt;%c4Description%&lt;/font&gt;&lt;/div&gt;" id="4egpDCTyvuItjCUWfbEi-29">
          <mxCell style="rounded=1;whiteSpace=wrap;html=1;labelBackgroundColor=none;fillColor=#1061B0;fontColor=#ffffff;align=center;arcSize=10;strokeColor=#0D5091;metaEdit=1;resizable=0;points=[[0.25,0,0],[0.5,0,0],[0.75,0,0],[1,0.25,0],[1,0.5,0],[1,0.75,0],[0.75,1,0],[0.5,1,0],[0.25,1,0],[0,0.75,0],[0,0.5,0],[0,0.25,0]];" vertex="1" parent="1">
            <mxGeometry x="410" y="200" width="240" height="120" as="geometry" />
          </mxCell>
        </object>
        <object placeholders="1" c4Name="export-service" c4Type="Sistema " c4Description="Escuta mensagens Kafka, salva no banco e expõe dados via API." label="&lt;font style=&quot;font-size: 16px&quot;&gt;&lt;b&gt;%c4Name%&lt;/b&gt;&lt;/font&gt;&lt;div&gt;[%c4Type%]&lt;/div&gt;&lt;br&gt;&lt;div&gt;&lt;font style=&quot;font-size: 11px&quot;&gt;&lt;font color=&quot;#cccccc&quot;&gt;%c4Description%&lt;/font&gt;&lt;/div&gt;" id="4egpDCTyvuItjCUWfbEi-30">
          <mxCell style="rounded=1;whiteSpace=wrap;html=1;labelBackgroundColor=none;fillColor=#1061B0;fontColor=#ffffff;align=center;arcSize=10;strokeColor=#0D5091;metaEdit=1;resizable=0;points=[[0.25,0,0],[0.5,0,0],[0.75,0,0],[1,0.25,0],[1,0.5,0],[1,0.75,0],[0.75,1,0],[0.5,1,0],[0.25,1,0],[0,0.75,0],[0,0.5,0],[0,0.25,0]];" vertex="1" parent="1">
            <mxGeometry x="770" y="200" width="240" height="120" as="geometry" />
          </mxCell>
        </object>
        <object placeholders="1" c4Name="Container Gestão de Pedidos" c4Type="SystemScopeBoundary" c4Application="system" label="&lt;font style=&quot;font-size: 16px&quot;&gt;&lt;span&gt;&lt;div style=&quot;text-align: left&quot;&gt;%c4Name%&lt;/div&gt;&lt;/span&gt;&lt;/font&gt;&lt;div style=&quot;text-align: left&quot;&gt;[%c4Application%]&lt;/div&gt;" id="4egpDCTyvuItjCUWfbEi-31">
          <mxCell style="rounded=1;fontSize=11;whiteSpace=wrap;html=1;arcSize=20;fillColor=none;strokeColor=#000000;fontColor=#333333;labelBackgroundColor=none;align=left;verticalAlign=top;labelBorderColor=none;spacingTop=0;spacing=10;metaEdit=1;rotatable=0;perimeter=rectanglePerimeter;noLabel=0;labelPadding=0;allowArrows=0;connectable=0;expand=0;recursiveResize=0;editable=1;pointerEvents=0;absoluteArcSize=1;points=[[0.25,0,0],[0.5,0,0],[0.75,0,0],[1,0.25,0],[1,0.5,0],[1,0.75,0],[0.75,1,0],[0.5,1,0],[0.25,1,0],[0,0.75,0],[0,0.5,0],[0,0.25,0]];fontStyle=1;dashed=1;" vertex="1" parent="1">
            <mxGeometry x="-90" y="-130" width="1170" height="690" as="geometry" />
          </mxCell>
        </object>
        <object placeholders="1" c4Name="Aplicacao" c4Type="SystemScopeBoundary" c4Application="Software System" label="&lt;font style=&quot;font-size: 16px&quot;&gt;&lt;b&gt;&lt;div style=&quot;text-align: left&quot;&gt;%c4Name%&lt;/div&gt;&lt;/b&gt;&lt;/font&gt;&lt;div style=&quot;text-align: left&quot;&gt;[%c4Application%]&lt;/div&gt;" id="4egpDCTyvuItjCUWfbEi-34">
          <mxCell style="rounded=1;fontSize=11;whiteSpace=wrap;html=1;arcSize=20;fillColor=none;strokeColor=#000000;fontColor=#333333;labelBackgroundColor=none;align=left;verticalAlign=top;labelBorderColor=none;spacingTop=0;spacing=10;metaEdit=1;rotatable=0;perimeter=rectanglePerimeter;noLabel=0;labelPadding=0;allowArrows=0;connectable=0;expand=0;recursiveResize=0;editable=1;pointerEvents=0;absoluteArcSize=1;points=[[0.25,0,0],[0.5,0,0],[0.75,0,0],[1,0.25,0],[1,0.5,0],[1,0.75,0],[0.75,1,0],[0.5,1,0],[0.25,1,0],[0,0.75,0],[0,0.5,0],[0,0.25,0]];dashed=1;" vertex="1" parent="1">
            <mxGeometry x="-10" y="130" width="1050" height="230" as="geometry" />
          </mxCell>
        </object>
        <mxCell id="4egpDCTyvuItjCUWfbEi-35" style="rounded=1;flowAnimation=1;" edge="1" parent="1" source="4egpDCTyvuItjCUWfbEi-22" target="4egpDCTyvuItjCUWfbEi-25">
          <mxGeometry relative="1" as="geometry">
            <mxPoint x="589" y="-60" as="sourcePoint" />
            <mxPoint x="721" y="-160" as="targetPoint" />
          </mxGeometry>
        </mxCell>
        <mxCell id="4egpDCTyvuItjCUWfbEi-36" style="edgeStyle=orthogonalEdgeStyle;rounded=0;orthogonalLoop=1;jettySize=auto;html=1;flowAnimation=1;" edge="1" parent="1" source="4egpDCTyvuItjCUWfbEi-24" target="4egpDCTyvuItjCUWfbEi-18">
          <mxGeometry relative="1" as="geometry">
            <mxPoint x="-1071" y="411" as="sourcePoint" />
            <mxPoint x="-730" y="411" as="targetPoint" />
          </mxGeometry>
        </mxCell>
        <mxCell id="4egpDCTyvuItjCUWfbEi-37" value="&lt;div style=&quot;background-color: rgb(251, 251, 251);&quot;&gt;&lt;br&gt;&lt;/div&gt;" style="edgeLabel;html=1;align=center;verticalAlign=middle;resizable=0;points=[];" vertex="1" connectable="0" parent="4egpDCTyvuItjCUWfbEi-36">
          <mxGeometry x="-0.0152" y="2" relative="1" as="geometry">
            <mxPoint as="offset" />
          </mxGeometry>
        </mxCell>
        <mxCell id="4egpDCTyvuItjCUWfbEi-44" style="rounded=1;flowAnimation=1;exitX=0;exitY=0.75;exitDx=0;exitDy=0;exitPerimeter=0;" edge="1" parent="1" source="4egpDCTyvuItjCUWfbEi-23" target="4egpDCTyvuItjCUWfbEi-25">
          <mxGeometry relative="1" as="geometry">
            <mxPoint x="410" y="-270" as="sourcePoint" />
            <mxPoint x="350" y="-150" as="targetPoint" />
          </mxGeometry>
        </mxCell>
      </root>
    </mxGraphModel>
  </diagram>
</mxfile>
